<svg width="109" height="32" viewBox="0 0 109 32" fill="none" xmlns="http://www.w3.org/2000/svg">
<path d="M26.4089 6.76326L11.853 1.91725C11.8473 1.91518 11.8424 1.9114 11.8389 1.90644C11.8354 1.90148 11.8336 1.89558 11.8336 1.88953C11.8336 1.88347 11.8354 1.87757 11.8389 1.87261C11.8424 1.86765 11.8473 1.86387 11.853 1.8618L17.4333 0.00138782C17.4391 -0.000462607 17.4454 -0.000462607 17.4512 0.00138782L32.0017 4.85098C32.0074 4.85305 32.0123 4.85682 32.0158 4.86178C32.0193 4.86674 32.0211 4.87265 32.0211 4.8787C32.0211 4.88476 32.0193 4.89066 32.0158 4.89562C32.0123 4.90058 32.0074 4.90436 32.0017 4.90643L26.4268 6.76326C26.4209 6.76511 26.4147 6.76511 26.4089 6.76326Z" fill="#212622"/>
<path d="M10.0596 3.01561L25.5824 8.18451C25.5879 8.18624 25.5927 8.1897 25.5961 8.19437C25.5995 8.19904 25.6013 8.20468 25.6012 8.21045V13.3498C25.6013 13.3541 25.6003 13.3583 25.5984 13.3621C25.5965 13.3659 25.5938 13.3692 25.5904 13.3717C25.587 13.3742 25.583 13.3759 25.5788 13.3766C25.5747 13.3773 25.5704 13.377 25.5663 13.3758L10.0435 8.20687C10.038 8.20514 10.0332 8.20168 10.0298 8.19701C10.0265 8.19234 10.0247 8.1867 10.0247 8.18093V3.04155C10.0247 3.03731 10.0256 3.03311 10.0275 3.02931C10.0294 3.02551 10.0322 3.0222 10.0356 3.01967C10.039 3.01714 10.0429 3.01545 10.0471 3.01475C10.0513 3.01404 10.0556 3.01434 10.0596 3.01561Z" fill="#212622"/>
<path d="M8.96038 9.54225C12.7152 10.7891 16.4199 12.0231 20.0745 13.2443C20.1348 13.2646 20.1348 13.2848 20.0745 13.3051L18.232 13.9214C18.1897 13.9357 18.1476 13.936 18.1059 13.9223L3.66179 9.11471C3.6278 9.10338 3.6278 9.09206 3.66179 9.08073L8.37721 7.51011C8.38133 7.50885 8.38568 7.50854 8.38992 7.5092C8.39417 7.50985 8.39818 7.51146 8.40166 7.51389C8.40513 7.51632 8.40796 7.51951 8.40993 7.5232C8.41189 7.52689 8.41294 7.53098 8.41299 7.53515C8.41657 7.90545 8.41567 8.28826 8.41031 8.6836C8.40494 9.07715 8.5874 9.41793 8.96038 9.54225Z" fill="#212622"/>
<path d="M13.5032 15.4911C13.0774 15.6279 12.8019 15.8676 12.8037 16.3497C12.8061 17.1935 12.8067 18.0757 12.8055 18.9964C12.8055 19.0309 12.7891 19.0429 12.7563 19.0321L1.89798 15.4204C1.87889 15.4139 1.86935 15.4005 1.86935 15.3802V10.248C1.86935 10.2223 1.88158 10.2137 1.90603 10.222L15.5147 14.7586C15.5803 14.78 15.5806 14.8018 15.5156 14.8238C14.8287 15.0582 14.1579 15.2806 13.5032 15.4911Z" fill="#212622"/>
<path d="M21.774 18.1744L16.2464 16.3319C16.1897 16.3128 16.1897 16.2937 16.2464 16.2746L22.6666 14.1378C22.6979 14.1274 22.7318 14.1274 22.7632 14.1378C23.9003 14.5188 25.0392 14.8984 26.1799 15.2764C26.3642 15.3372 26.5386 15.3131 26.7344 15.2478C29.3074 14.3903 31.8807 13.5332 34.4543 12.6763C34.4908 12.6642 34.5301 12.6642 34.5661 12.6763L36.3961 13.2881C36.4473 13.3054 36.4473 13.3227 36.3961 13.34L21.8875 18.1753C21.8516 18.1874 21.8116 18.1871 21.774 18.1744Z" fill="#212622"/>
<path d="M14.454 17.4329L20.9985 19.6144C21.0045 19.6163 21.0098 19.6202 21.0135 19.6253C21.0172 19.6305 21.0192 19.6367 21.0191 19.643L21.0182 24.7744C21.0182 24.779 21.0172 24.7837 21.0151 24.7879C21.0131 24.7921 21.01 24.7957 21.0063 24.7985C21.0025 24.8013 20.9981 24.8032 20.9935 24.804C20.9889 24.8047 20.9842 24.8044 20.9797 24.803L14.4361 22.6224C14.43 22.6204 14.4247 22.6166 14.421 22.6115C14.4173 22.6063 14.4154 22.6001 14.4155 22.5937V17.4615C14.4154 17.4568 14.4165 17.4522 14.4185 17.448C14.4206 17.4438 14.4236 17.4401 14.4274 17.4373C14.4311 17.4345 14.4355 17.4327 14.4401 17.4319C14.4448 17.4311 14.4495 17.4315 14.454 17.4329Z" fill="#212622"/>
<path d="M6.81375 18.7513L12.3932 20.609C12.3987 20.611 12.4034 20.6147 12.4067 20.6195C12.4101 20.6243 12.4119 20.63 12.4119 20.6358C12.4119 20.6417 12.4101 20.6474 12.4067 20.6522C12.4034 20.657 12.3987 20.6606 12.3932 20.6627L7.42465 22.3165C7.41884 22.3184 7.41257 22.3184 7.40676 22.3165L1.8291 20.4587C1.82363 20.4567 1.8189 20.453 1.81557 20.4483C1.81223 20.4435 1.81044 20.4378 1.81044 20.4319C1.81044 20.4261 1.81223 20.4204 1.81557 20.4156C1.8189 20.4108 1.82363 20.4071 1.8291 20.4051L6.79586 18.7513C6.80167 18.7494 6.80794 18.7494 6.81375 18.7513Z" fill="#212622"/>
<path d="M0.0482993 21.5625L6.58478 23.7368C6.59209 23.7393 6.59844 23.744 6.60294 23.7502C6.60744 23.7565 6.60984 23.764 6.60982 23.7717L6.60893 28.8932C6.60894 28.899 6.60757 28.9048 6.60493 28.9099C6.60229 28.9151 6.59845 28.9196 6.59373 28.923C6.58901 28.9264 6.58354 28.9287 6.57779 28.9296C6.57203 28.9304 6.56615 28.9299 6.56063 28.9281L0.025044 26.7501C0.017733 26.7477 0.0113783 26.743 0.00688243 26.7368C0.00238661 26.7305 -2.15707e-05 26.723 1.45796e-07 26.7153V21.5973C-1.62714e-05 21.5915 0.00135402 21.5858 0.00399727 21.5806C0.00664053 21.5754 0.0104809 21.5709 0.0152008 21.5675C0.0199207 21.5641 0.0253843 21.5619 0.0311398 21.561C0.0368954 21.5601 0.0427776 21.5606 0.0482993 21.5625Z" fill="#212622"/>
<path d="M29.314 24.2896L34.9015 22.431C34.9067 22.4293 34.9123 22.4293 34.9176 22.431L38.0785 23.481C38.0835 23.483 38.0879 23.4864 38.091 23.4909C38.094 23.4953 38.0957 23.5006 38.0957 23.5061C38.0957 23.5115 38.094 23.5168 38.091 23.5212C38.0879 23.5257 38.0835 23.5292 38.0785 23.5311L32.4937 25.3906C32.4884 25.3923 32.4828 25.3923 32.4776 25.3906L29.314 24.3406C29.3086 24.3388 29.3039 24.3354 29.3006 24.3308C29.2973 24.3262 29.2955 24.3207 29.2955 24.3151C29.2955 24.3094 29.2973 24.3039 29.3006 24.2993C29.3039 24.2948 29.3086 24.2913 29.314 24.2896Z" fill="#212622"/>
<path d="M31.6153 31.9951L16.1408 26.8432C16.1098 26.8324 16.0943 26.8125 16.0943 26.7832L16.0952 24.9103C16.0953 24.9061 16.0963 24.902 16.0983 24.8984C16.1003 24.8947 16.1031 24.8915 16.1066 24.889C16.11 24.8866 16.114 24.885 16.1183 24.8844C16.1225 24.8837 16.1269 24.884 16.131 24.8853C17.9467 25.4899 19.7642 26.0954 21.5834 26.7019C21.7426 26.7546 21.9305 26.7502 22.0897 26.6965C23.6162 26.1861 25.1352 25.6795 26.6468 25.1769C26.6758 25.167 26.7075 25.167 26.7371 25.1769L31.6502 26.8145C31.6581 26.8172 31.6649 26.8222 31.6697 26.829C31.6745 26.8357 31.6771 26.8438 31.6771 26.8521V31.9504C31.6771 31.9939 31.6565 32.0088 31.6153 31.9951Z" fill="#212622"/>
<path d="M56.5639 7.34381H54.427C54.388 7.06735 54.3083 6.82178 54.1879 6.60712C54.0676 6.38921 53.9131 6.20382 53.7245 6.05095C53.5358 5.89809 53.3179 5.781 53.0707 5.69968C52.8268 5.61837 52.5617 5.57772 52.2755 5.57772C51.7583 5.57772 51.3079 5.70619 50.9241 5.96313C50.5403 6.21683 50.2427 6.58761 50.0313 7.07548C49.8199 7.56009 49.7142 8.14879 49.7142 8.84157C49.7142 9.55386 49.8199 10.1523 50.0313 10.6369C50.2459 11.1215 50.5452 11.4874 50.929 11.7346C51.3128 11.9818 51.7567 12.1054 52.2609 12.1054C52.5438 12.1054 52.8056 12.068 53.0463 11.9932C53.2903 11.9184 53.5065 11.8094 53.6952 11.6663C53.8838 11.52 54.04 11.3427 54.1635 11.1346C54.2904 10.9264 54.3782 10.689 54.427 10.4223L56.5639 10.432C56.5086 10.8906 56.3703 11.333 56.1492 11.759C55.9313 12.1818 55.6369 12.5608 55.2661 12.8958C54.8986 13.2275 54.4595 13.491 53.9489 13.6861C53.4415 13.878 52.8674 13.974 52.2267 13.974C51.3355 13.974 50.5387 13.7723 49.8361 13.369C49.1369 12.9657 48.5839 12.3819 48.1774 11.6175C47.7741 10.8532 47.5724 9.92789 47.5724 8.84157C47.5724 7.75199 47.7773 6.82504 48.1871 6.06071C48.5969 5.29638 49.1531 4.71419 49.8557 4.31414C50.5582 3.91083 51.3485 3.70918 52.2267 3.70918C52.8056 3.70918 53.3423 3.79049 53.8367 3.95311C54.3343 4.11573 54.775 4.35316 55.1588 4.6654C55.5426 4.97438 55.8548 5.3533 56.0955 5.80214C56.3394 6.25098 56.4956 6.76487 56.5639 7.34381Z" fill="#212622"/>
<path d="M57.6982 5.58747V3.84578H65.9041V5.58747H62.8452V13.8374H60.7571V5.58747H57.6982Z" fill="#212622"/>
<path d="M67.2555 13.8374V3.84578H71.1975C71.9553 3.84578 72.6009 3.99051 73.1344 4.27998C73.6678 4.5662 74.0743 4.96463 74.354 5.47526C74.637 5.98265 74.7785 6.56809 74.7785 7.2316C74.7785 7.8951 74.6354 8.48054 74.3492 8.98793C74.0629 9.49531 73.6482 9.89049 73.1051 10.1735C72.5652 10.4564 71.9114 10.5979 71.1439 10.5979H68.6313V8.90499H70.8023C71.2089 8.90499 71.5439 8.83506 71.8074 8.6952C72.0741 8.5521 72.2725 8.35532 72.4026 8.10488C72.5359 7.85119 72.6026 7.56009 72.6026 7.2316C72.6026 6.89984 72.5359 6.61037 72.4026 6.36319C72.2725 6.11275 72.0741 5.91923 71.8074 5.78262C71.5406 5.64277 71.2024 5.57284 70.7926 5.57284H69.368V13.8374H67.2555Z" fill="#212622"/>
<path d="M85.3323 8.84157C85.3323 9.93114 85.1258 10.8581 84.7127 11.6224C84.3029 12.3868 83.7435 12.9706 83.0345 13.3739C82.3287 13.7739 81.5351 13.974 80.6536 13.974C79.7657 13.974 78.9689 13.7723 78.2631 13.369C77.5573 12.9657 76.9995 12.3819 76.5897 11.6175C76.1799 10.8532 75.975 9.92789 75.975 8.84157C75.975 7.75199 76.1799 6.82504 76.5897 6.06071C76.9995 5.29638 77.5573 4.71419 78.2631 4.31414C78.9689 3.91083 79.7657 3.70918 80.6536 3.70918C81.5351 3.70918 82.3287 3.91083 83.0345 4.31414C83.7435 4.71419 84.3029 5.29638 84.7127 6.06071C85.1258 6.82504 85.3323 7.75199 85.3323 8.84157ZM83.1906 8.84157C83.1906 8.13578 83.0849 7.54058 82.8735 7.05596C82.6653 6.57135 82.3709 6.20382 81.9904 5.95338C81.6099 5.70294 81.1643 5.57772 80.6536 5.57772C80.143 5.57772 79.6974 5.70294 79.3169 5.95338C78.9363 6.20382 78.6404 6.57135 78.429 7.05596C78.2208 7.54058 78.1167 8.13578 78.1167 8.84157C78.1167 9.54735 78.2208 10.1426 78.429 10.6272C78.6404 11.1118 78.9363 11.4793 79.3169 11.7298C79.6974 11.9802 80.143 12.1054 80.6536 12.1054C81.1643 12.1054 81.6099 11.9802 81.9904 11.7298C82.3709 11.4793 82.6653 11.1118 82.8735 10.6272C83.0849 10.1426 83.1906 9.54735 83.1906 8.84157Z" fill="#212622"/>
<path d="M86.8972 3.84578H89.0048V10.1295H89.0877L93.4053 3.84578H95.2544V13.8374H93.1419V7.54871H93.0687L88.7267 13.8374H86.8972V3.84578Z" fill="#212622"/>
<path d="M96.9997 3.84578H99.6049L102.357 10.5589H102.474L105.225 3.84578H107.83V13.8374H105.781V7.33405H105.698L103.113 13.7886H101.717L99.1317 7.30965H99.0488V13.8374H96.9997V3.84578Z" fill="#212622"/>
<path d="M47.2065 27.8655V26.1677L47.4895 26.1433C47.8538 26.114 48.1481 25.9758 48.3725 25.7286C48.5969 25.4782 48.7645 25.0798 48.875 24.5333C48.9889 23.9837 49.0621 23.2454 49.0946 22.3184L49.2605 17.8739H56.0418V27.8655H53.9879V19.5668H51.2217L51.0656 23.0453C51.0135 24.1642 50.8802 25.0781 50.6655 25.7872C50.4541 26.4962 50.1159 27.0199 49.6507 27.3581C49.1889 27.6964 48.5563 27.8655 47.7529 27.8655H47.2065Z" fill="#212622"/>
<path d="M61.7677 27.8655V17.8739H68.5003V19.6156H63.8801V21.9964H68.1539V23.7381H63.8801V26.1238H68.5198V27.8655H61.7677Z" fill="#212622"/>
<path d="M80.7941 17.8739V19.6156H76.2764V27.8655H74.1639V17.8739H80.7941Z" fill="#212622"/>
<path d="M92.1755 27.8655L88.9653 23.6064H88.2433V27.8655H86.1308V17.8739H88.2433V21.8647H88.6677L91.9853 17.8739H94.6149L90.7168 22.5087L94.7954 27.8655H92.1755Z" fill="#212622"/>
<path d="M108.46 22.8697C108.46 23.9593 108.254 24.8862 107.84 25.6506C107.431 26.4149 106.871 26.9987 106.162 27.402C105.456 27.8021 104.663 28.0021 103.781 28.0021C102.893 28.0021 102.097 27.8004 101.391 27.3971C100.685 26.9938 100.127 26.41 99.7174 25.6457C99.3076 24.8814 99.1027 23.956 99.1027 22.8697C99.1027 21.7801 99.3076 20.8532 99.7174 20.0889C100.127 19.3245 100.685 18.7423 101.391 18.3423C102.097 17.939 102.893 17.7373 103.781 17.7373C104.663 17.7373 105.456 17.939 106.162 18.3423C106.871 18.7423 107.431 19.3245 107.84 20.0889C108.254 20.8532 108.46 21.7801 108.46 22.8697ZM106.318 22.8697C106.318 22.1639 106.213 21.5687 106.001 21.0841C105.793 20.5995 105.499 20.232 105.118 19.9815C104.738 19.7311 104.292 19.6059 103.781 19.6059C103.271 19.6059 102.825 19.7311 102.445 19.9815C102.064 20.232 101.768 20.5995 101.557 21.0841C101.349 21.5687 101.244 22.1639 101.244 22.8697C101.244 23.5755 101.349 24.1707 101.557 24.6553C101.768 25.1399 102.064 25.5075 102.445 25.7579C102.825 26.0083 103.271 26.1336 103.781 26.1336C104.292 26.1336 104.738 26.0083 105.118 25.7579C105.499 25.5075 105.793 25.1399 106.001 24.6553C106.213 24.1707 106.318 23.5755 106.318 22.8697Z" fill="#212622"/>
</svg>
