<svg width="24" height="24" viewBox="0 0 24 24" fill="none" xmlns="http://www.w3.org/2000/svg">
<path d="M16.25 12C16.25 11.5858 15.9142 11.25 15.5 11.25C15.0858 11.25 14.75 11.5858 14.75 12H16.25ZM7.0162 6.95815L7.14108 7.69768L7.0162 6.95815ZM8.59932 6.22026L8.18647 5.59411L8.18647 5.59412L8.59932 6.22026ZM7.72795 6.74463L8.03077 7.43078L7.72795 6.74463ZM3.33988 16.7227L3.02496 17.4034L3.33988 16.7227ZM1.53479 13.0284L0.786179 13.0741L1.53479 13.0284ZM1.95854 15.423L2.6188 15.0673L1.95854 15.423ZM13.7001 20.0749L13.4578 19.3651L13.7001 20.0749ZM15.4127 14.6054L16.1619 14.6402L15.4127 14.6054ZM14.2797 19.78L14.7109 20.3936L14.2797 19.78ZM8.81825 6.07591L9.2311 6.70206L9.2311 6.70206L8.81825 6.07591ZM13.7001 3.92511L13.4578 4.63492L13.7001 3.92511ZM14.2797 4.22008L14.7109 3.60646L14.2797 4.22008ZM3.33988 7.27732L3.02496 6.59664L3.33988 7.27732ZM1.53479 10.9716L0.786179 10.926L1.53479 10.9716ZM1.95854 8.57703L2.6188 8.93278L1.95854 8.57703ZM9.91107 17.7455C9.56462 17.5184 9.09972 17.6153 8.87269 17.9617C8.64566 18.3082 8.74247 18.7731 9.08893 19.0001L9.91107 17.7455ZM9.01216 6.84641L9.2311 6.70206L8.40541 5.44976L8.18647 5.59411L9.01216 6.84641ZM2.2834 12.9828C2.26225 12.6358 2.25 12.3033 2.25 12H0.75C0.75 12.3416 0.763733 12.7058 0.786179 13.0741L2.2834 12.9828ZM2.25 12C2.25 11.6968 2.26225 11.3642 2.2834 11.0173L0.786179 10.926C0.763733 11.2943 0.75 11.6585 0.75 12H2.25ZM14.75 12C14.75 12.5118 14.7156 13.451 14.6635 14.5706L16.1619 14.6402C16.2137 13.5253 16.25 12.552 16.25 12H14.75ZM6.00008 7.75003C6.48771 7.75003 6.81682 7.75244 7.14108 7.69768L6.89132 6.21862C6.71956 6.24763 6.5366 6.25003 6.00008 6.25003V7.75003ZM8.18647 5.59412C7.73856 5.88945 7.58448 5.98815 7.42513 6.05848L8.03077 7.43078C8.33163 7.298 8.60506 7.11483 9.01216 6.84641L8.18647 5.59412ZM7.14108 7.69768C7.44756 7.64593 7.74641 7.55627 8.03077 7.43078L7.42513 6.05848C7.25452 6.13377 7.0752 6.18757 6.89132 6.21862L7.14108 7.69768ZM6.00008 17.75C6.5366 17.75 6.71956 17.7524 6.89132 17.7814L7.14108 16.3024C6.81682 16.2476 6.48771 16.25 6.00008 16.25V17.75ZM6.00008 16.25C4.55641 16.25 4.06911 16.2338 3.6548 16.0421L3.02496 17.4034C3.80931 17.7663 4.69593 17.75 6.00008 17.75V16.25ZM0.786179 13.0741C0.856484 14.2276 0.890091 15.0212 1.29828 15.7788L2.6188 15.0673C2.40052 14.6622 2.36045 14.247 2.2834 12.9828L0.786179 13.0741ZM3.6548 16.0421C3.25445 15.8568 2.82804 15.4556 2.6188 15.0673L1.29828 15.7788C1.66141 16.4527 2.33016 17.082 3.02496 17.4034L3.6548 16.0421ZM14.6635 14.5706C14.5924 16.1014 14.541 17.1733 14.4015 17.9482C14.2626 18.7195 14.0651 19.0141 13.8485 19.1664L14.7109 20.3936C15.417 19.8974 15.7159 19.1134 15.8778 18.2139C16.0391 17.318 16.0928 16.1269 16.1619 14.6402L14.6635 14.5706ZM13.9423 20.7848C14.2142 20.692 14.4759 20.5588 14.7109 20.3936L13.8485 19.1664C13.7297 19.2498 13.5952 19.3183 13.4578 19.3651L13.9423 20.7848ZM9.2311 6.70206C10.5209 5.85164 11.426 5.25675 12.1402 4.90978C12.8525 4.56376 13.2087 4.54989 13.4578 4.63492L13.9423 3.21531C13.1241 2.9361 12.3108 3.15928 11.4848 3.56055C10.6607 3.96087 9.65858 4.62349 8.40541 5.44976L9.2311 6.70206ZM13.4578 4.63492C13.5952 4.68181 13.7297 4.75023 13.8485 4.8337L14.7109 3.60646C14.4759 3.44128 14.2142 3.30809 13.9423 3.21531L13.4578 4.63492ZM6.00008 6.25003C4.69593 6.25003 3.80931 6.23375 3.02496 6.59664L3.6548 7.958C4.06911 7.76631 4.55641 7.75003 6.00008 7.75003V6.25003ZM2.2834 11.0173C2.36045 9.75309 2.40052 9.33789 2.6188 8.93278L1.29828 8.22128C0.890091 8.97887 0.856484 9.7725 0.786179 10.926L2.2834 11.0173ZM3.02496 6.59664C2.33016 6.9181 1.66141 7.54732 1.29828 8.22128L2.6188 8.93278C2.82804 8.54443 3.25445 8.14323 3.6548 7.958L3.02496 6.59664ZM9.08893 19.0001C10.1277 19.6808 10.9875 20.2248 11.7204 20.549C12.4627 20.8773 13.2003 21.038 13.9423 20.7848L13.4578 19.3651C13.2324 19.4421 12.9187 19.4389 12.3272 19.1772C11.7264 18.9114 10.9698 18.4393 9.91107 17.7455L9.08893 19.0001ZM16.1231 8.54003C16.0624 7.31288 15.9963 6.30709 15.827 5.52977C15.6552 4.74135 15.3503 4.05581 14.7109 3.60646L13.8485 4.8337C14.0443 4.97136 14.2254 5.22532 14.3614 5.84912C14.4997 6.48403 14.5631 7.36321 14.6249 8.61403L16.1231 8.54003Z" fill="#212622"/>
<path d="M20 18C20 18 21.5 16.2 21.5 12C21.5 9.56658 20.9965 7.93882 20.5729 7" stroke="#212622" stroke-width="1.5" stroke-linecap="round"/>
<path d="M18 15C18 15 18.5 14.1 18.5 12C18.5 11.1381 18.4158 10.4784 18.3165 10" stroke="#212622" stroke-width="1.5" stroke-linecap="round"/>
<path d="M22 2L2 22" stroke="#212622" stroke-width="1.5" stroke-linecap="round"/>
</svg>
